# xmcd
#
# Track frame offsets: 
#        150
#        13343
#        30411
#        50147
#        71354
#        92869
#        110107
#        126460
#        144641
#        158843
#        174597
#        194745
#
# Disc length: 2860 seconds
#
# Revision: 0
# Processed by: cddbd v1.5.2PL0 Copyright (c) Steve Scherf et al.
# Submitted via: ExactAudioCopy v0.95a5
#
DISCID=b60b2a0c
DTITLE=Dave Duncan - I don't know if it's true, but it happened to me
DYEAR=2001
DGENRE=Blues
TTITLE0=Beside Myself
TTITLE1=If You See Me Runnin'
TTITLE2=The Shape of Blues to Come
TTITLE3=Ballin' in 'Nawlins
TTITLE4=My Good Thing's Gone
TTITLE5=The Twelve Year Old Boy
TTITLE6=Car Trouble
TTITLE7=Stop 'n Go Woman
TTITLE8=Devil of a Time
TTITLE9=Twenty Pounds of Taters
TTITLE10=Walking Thru the Park
TTITLE11=Harmonica Lewinsky
EXTD=
EXTT0=
EXTT1=
EXTT2=
EXTT3=
EXTT4=
EXTT5=
EXTT6=
EXTT7=
EXTT8=
EXTT9=
EXTT10=
EXTT11=
PLAYORDER=
